<svg xmlns="http://www.w3.org/2000/svg"  viewBox="0 0 100 100" width="500px" height="500px"><path fill="#c7ede6" d="M88.473,56.124c0.299-0.614,0.563-1.259,0.792-1.935c2.622-7.739-1.343-17.008-9.693-19.245c-0.903-11.338-8.87-19.115-17.867-20.442c-10.298-1.519-19.733,5.023-22.872,15.422c-3.784-1.34-7.471-1.177-10.945,0.853c-1.576,0.729-3.018,1.805-4.312,3.22c-1.9,2.077-3.134,4.7-3.637,7.465c-0.745,0.117-1.477,0.235-2.167,0.482c-4.023,1.443-6.562,4.413-7.258,8.886c-0.434,2.785,0.441,5.564,0.929,6.687c1.927,4.436,6.396,6.952,10.936,6.286c0.226-0.033,0.554,0.069,0.749,0.232c0.24,7.091,3.683,13.362,8.848,16.944c8.287,5.748,18.949,3.977,25.675-3.905c2.882,2.948,6.312,4.38,10.342,3.86c4.006-0.517,7.117-2.728,9.387-6.322c1.048,0.282,2.043,0.689,3.071,0.801c4.025,0.44,7.294-1.161,9.692-4.78c0.918-1.385,1.786-3.181,1.786-6.328C91.929,61.06,90.641,58.105,88.473,56.124z"/><path fill="#fdfcef" d="M76.628,49.522c0,0,11.643,0,11.714,0c2.689,0,4.868-2.18,4.868-4.869c0-2.346-1.659-4.303-3.868-4.765c0.025-0.205,0.043-0.413,0.043-0.625c0-2.785-2.257-5.042-5.042-5.042c-1.644,0-3.1,0.791-4.02,2.008c-0.235-3.1-3.004-5.491-6.244-5.095c-2.369,0.29-4.328,2.121-4.764,4.467c-0.14,0.752-0.125,1.483,0.014,2.168c-0.635-0.684-1.539-1.115-2.546-1.115c-1.843,0-3.347,1.435-3.466,3.248c-0.837-0.185-1.747-0.173-2.706,0.187c-1.832,0.688-3.137,2.413-3.214,4.369c-0.108,2.778,2.111,5.064,4.864,5.064c0.209,0,0.944,0,1.114,0h10.109"/><path fill="#472b29" d="M88.341,50.022H76.628c-0.276,0-0.5-0.224-0.5-0.5s0.224-0.5,0.5-0.5h11.714c2.408,0,4.368-1.96,4.368-4.369c0-2.057-1.46-3.855-3.471-4.275c-0.254-0.053-0.426-0.292-0.394-0.551c0.022-0.185,0.039-0.373,0.039-0.564c0-2.505-2.037-4.542-4.542-4.542c-1.432,0-2.752,0.66-3.622,1.81c-0.125,0.166-0.342,0.237-0.539,0.178c-0.2-0.059-0.342-0.234-0.358-0.441c-0.104-1.371-0.774-2.659-1.841-3.533c-1.077-0.883-2.441-1.274-3.844-1.104c-2.156,0.264-3.938,1.935-4.333,4.063c-0.123,0.667-0.119,1.332,0.013,1.977c0.045,0.22-0.062,0.442-0.262,0.545c-0.197,0.103-0.441,0.061-0.595-0.104c-0.571-0.616-1.346-0.955-2.18-0.955c-1.562,0-2.864,1.221-2.967,2.78c-0.01,0.146-0.082,0.28-0.199,0.367c-0.116,0.087-0.266,0.119-0.408,0.088c-0.835-0.184-1.629-0.13-2.422,0.167c-1.661,0.624-2.822,2.199-2.889,3.92c-0.047,1.202,0.385,2.339,1.216,3.204s1.949,1.34,3.148,1.34h11.223c0.276,0,0.5,0.224,0.5,0.5s-0.224,0.5-0.5,0.5H62.261c-1.474,0-2.848-0.585-3.869-1.647c-1.021-1.062-1.553-2.459-1.495-3.936c0.083-2.118,1.504-4.054,3.537-4.818c0.797-0.299,1.623-0.398,2.457-0.297c0.377-1.815,1.99-3.168,3.891-3.168c0.681,0,1.347,0.178,1.934,0.506c0-0.382,0.036-0.767,0.107-1.151c0.474-2.552,2.609-4.556,5.194-4.872c1.674-0.207,3.308,0.265,4.599,1.323c0.999,0.819,1.708,1.941,2.029,3.178c1.008-0.911,2.31-1.418,3.697-1.418c3.056,0,5.542,2.486,5.542,5.542c0,0.083-0.002,0.165-0.007,0.246c2.245,0.67,3.832,2.767,3.832,5.144C93.71,47.614,91.301,50.022,88.341,50.022z"/><path fill="#fdfcef" d="M73.806,38.798c-1.801-0.118-3.351,1.126-3.462,2.778c-0.014,0.205-0.005,0.407,0.025,0.604c-0.347-0.392-0.862-0.659-1.452-0.697c-1.08-0.071-2.013,0.643-2.149,1.613c-0.197-0.054-0.401-0.09-0.614-0.104c-1.576-0.103-2.932,0.985-3.029,2.431"/><path fill="#472b29" d="M63.126,45.672c-0.005,0-0.011,0-0.017,0c-0.138-0.009-0.242-0.128-0.232-0.266c0.105-1.581,1.568-2.778,3.295-2.664c0.134,0.009,0.27,0.026,0.406,0.053c0.273-0.964,1.248-1.63,2.356-1.562c0.416,0.027,0.817,0.162,1.157,0.382c0.001-0.019,0.002-0.037,0.004-0.056c0.118-1.787,1.77-3.136,3.728-3.011c0.138,0.009,0.242,0.128,0.232,0.266c-0.008,0.132-0.118,0.233-0.249,0.233c-0.005,0-0.011,0-0.017,0c-1.658-0.115-3.096,1.033-3.196,2.545c-0.012,0.185-0.004,0.37,0.023,0.549c0.017,0.109-0.04,0.217-0.141,0.264c-0.102,0.047-0.221,0.023-0.294-0.06c-0.316-0.357-0.783-0.581-1.281-0.614c-0.946-0.065-1.768,0.553-1.884,1.398c-0.011,0.071-0.051,0.135-0.11,0.174s-0.135,0.052-0.203,0.033c-0.189-0.052-0.38-0.084-0.564-0.096c-1.463-0.098-2.677,0.892-2.765,2.198C63.366,45.571,63.256,45.672,63.126,45.672z"/><path fill="#fdfcef" d="M90.313,40.46c-1.692-0.798-3.649-0.233-4.371,1.262c-0.09,0.186-0.156,0.377-0.2,0.571"/><path fill="#472b29" d="M85.742,42.542c-0.018,0-0.036-0.002-0.055-0.006c-0.135-0.03-0.22-0.164-0.189-0.299c0.049-0.215,0.123-0.425,0.22-0.625c0.779-1.616,2.893-2.232,4.701-1.379c0.125,0.059,0.179,0.208,0.12,0.333c-0.06,0.125-0.21,0.178-0.333,0.12c-1.564-0.739-3.377-0.225-4.038,1.145c-0.081,0.166-0.142,0.34-0.182,0.518C85.96,42.464,85.856,42.542,85.742,42.542z"/><path fill="#fff" d="M18.427 48.194H8.438c-.276 0-.5-.224-.5-.5s.224-.5.5-.5h9.989c.276 0 .5.224.5.5S18.704 48.194 18.427 48.194zM21.296 48.194h-1.44c-.276 0-.5-.224-.5-.5s.224-.5.5-.5h1.44c.276 0 .5.224.5.5S21.573 48.194 21.296 48.194zM25.335 48.194h-2.536c-.276 0-.5-.224-.5-.5s.224-.5.5-.5h2.536c.276 0 .5.224.5.5S25.611 48.194 25.335 48.194zM25.335 50.052h-9.577c-.276 0-.5-.224-.5-.5s.224-.5.5-.5h9.577c.276 0 .5.224.5.5S25.611 50.052 25.335 50.052zM14.033 50.052h-.577c-.276 0-.5-.224-.5-.5s.224-.5.5-.5h.577c.276 0 .5.224.5.5S14.309 50.052 14.033 50.052zM11.666 50.052h-1.45c-.276 0-.5-.224-.5-.5s.224-.5.5-.5h1.45c.276 0 .5.224.5.5S11.942 50.052 11.666 50.052zM20.764 46.337h-5.007c-.276 0-.5-.224-.5-.5s.224-.5.5-.5h5.007c.276 0 .5.224.5.5S21.041 46.337 20.764 46.337zM20.764 44.48h-1.252c-.276 0-.5-.224-.5-.5s.224-.5.5-.5h1.252c.276 0 .5.224.5.5S21.041 44.48 20.764 44.48zM17.508 51.909h-1.751c-.276 0-.5-.224-.5-.5s.224-.5.5-.5h1.751c.276 0 .5.224.5.5S17.785 51.909 17.508 51.909zM71.387 22.025h-9.99c-.276 0-.5-.224-.5-.5s.224-.5.5-.5h9.99c.276 0 .5.224.5.5S71.664 22.025 71.387 22.025zM74.256 22.025h-1.44c-.276 0-.5-.224-.5-.5s.224-.5.5-.5h1.44c.276 0 .5.224.5.5S74.533 22.025 74.256 22.025zM78.295 22.025h-2.536c-.276 0-.5-.224-.5-.5s.224-.5.5-.5h2.536c.276 0 .5.224.5.5S78.571 22.025 78.295 22.025zM76.277 18.31H66.7c-.276 0-.5-.224-.5-.5s.224-.5.5-.5h9.577c.276 0 .5.224.5.5S76.553 18.31 76.277 18.31zM64.975 18.31h-.577c-.276 0-.5-.224-.5-.5s.224-.5.5-.5h.577c.276 0 .5.224.5.5S65.252 18.31 64.975 18.31zM62.608 18.31h-1.45c-.276 0-.5-.224-.5-.5s.224-.5.5-.5h1.45c.276 0 .5.224.5.5S62.884 18.31 62.608 18.31zM73.724 20.168h-5.007c-.276 0-.5-.224-.5-.5s.224-.5.5-.5h5.007c.276 0 .5.224.5.5S74.001 20.168 73.724 20.168z"/><path fill="#fff" d="M73.724 18.31h-1.252c-.276 0-.5-.224-.5-.5s.224-.5.5-.5h1.252c.276 0 .5.224.5.5S74.001 18.31 73.724 18.31zM67.268 20.168h-1.752c-.276 0-.5-.224-.5-.5s.224-.5.5-.5h1.752c.276 0 .5.224.5.5S67.545 20.168 67.268 20.168z"/><path fill="#ee3e54" d="M66.646,73.023H37.111c-3.766,0-6.847-3.081-6.847-6.847V36.641c0-3.766,3.081-6.847,6.847-6.847h29.535c3.766,0,6.847,3.081,6.847,6.847v29.535C73.494,69.942,70.412,73.023,66.646,73.023z"/><path fill="#472b29" d="M66.646,73.723H37.111c-4.161,0-7.547-3.386-7.547-7.547V36.641c0-4.162,3.386-7.547,7.547-7.547h29.535c4.162,0,7.548,3.386,7.548,7.547v29.535C74.194,70.338,70.808,73.723,66.646,73.723z M37.111,30.494c-3.39,0-6.146,2.757-6.146,6.147v29.535c0,3.39,2.757,6.147,6.146,6.147h29.535c3.39,0,6.147-2.757,6.147-6.147V36.641c0-3.39-2.758-6.147-6.147-6.147H37.111z"/><path fill="#fdfcee" d="M64.857,69.936H38.901c-3.052,0-5.549-2.497-5.549-5.549V38.431c0-3.052,2.497-5.549,5.549-5.549h25.956c3.052,0,5.549,2.497,5.549,5.549v25.956C70.406,67.439,67.909,69.936,64.857,69.936z"/><path fill="#472b29" d="M64.775 70.286H38.983c-3.298 0-5.98-2.683-5.98-5.981V38.513c0-3.298 2.683-5.981 5.98-5.981h24.561c.193 0 .35.157.35.35s-.156.35-.35.35H38.983c-2.912 0-5.281 2.369-5.281 5.281v25.792c0 2.912 2.369 5.281 5.281 5.281h25.792c2.912 0 5.281-2.369 5.281-5.281V50.036c0-.193.156-.35.35-.35s.35.157.35.35v14.268C70.755 67.602 68.073 70.286 64.775 70.286zM70.406 48.328c-.193 0-.35-.157-.35-.35v-2.745c0-.193.156-.35.35-.35s.35.157.35.35v2.745C70.755 48.171 70.599 48.328 70.406 48.328z"/><g><path fill="#472b29" d="M70.406,44.211c-0.193,0-0.35-0.157-0.35-0.35v-1.373c0-0.193,0.156-0.35,0.35-0.35s0.35,0.157,0.35,0.35v1.373C70.755,44.054,70.599,44.211,70.406,44.211z"/></g><g><path fill="#f2f0e7" d="M61.637,58.165c0,1.8-1.647,3.362-3.633,3.362H45.975c-1.986,0-3.595-1.562-3.595-3.362V45.446c0-1.8,1.61-3.176,3.595-3.176h12.029c1.986,0,3.633,1.376,3.633,3.176V58.165z"/><path fill="#472b29" d="M58.004,61.902H45.975c-2.152,0-3.971-1.711-3.971-3.737V45.446c0-1.991,1.744-3.551,3.971-3.551h12.028c2.248,0,4.009,1.56,4.009,3.551v12.719C62.012,60.191,60.176,61.902,58.004,61.902z M45.975,42.645c-1.806,0-3.221,1.23-3.221,2.801v12.719c0,1.619,1.475,2.987,3.221,2.987h12.028c1.767,0,3.259-1.368,3.259-2.987V45.446c0-1.571-1.432-2.801-3.259-2.801H45.975z"/><path fill="#f76976" d="M42.938,47.532h18.367v-2.153c0-1.601-1.59-2.825-3.506-2.825H46.192c-1.916,0-3.47,1.224-3.47,2.825v2.153H42.938z"/><path fill="#472b29" d="M56.511 47.782H42.614c-.138 0-.25-.112-.25-.25s.112-.25.25-.25h13.897c.138 0 .25.112.25.25S56.649 47.782 56.511 47.782zM47.082 44.48c-.276 0-.5-.224-.5-.5v-3.882c0-.276.224-.5.5-.5s.5.224.5.5v3.882C47.582 44.256 47.358 44.48 47.082 44.48zM56.934 44.48c-.276 0-.5-.224-.5-.5v-3.882c0-.276.224-.5.5-.5s.5.224.5.5v3.882C57.434 44.256 57.211 44.48 56.934 44.48z"/><path fill="#cdcbbd" d="M46.153,52.697c0.01-1.445,1.377-2.07,2.637-2.07c1.367,0,2.852,0.557,2.852,2.178c0,1.738-1.309,2.07-2.744,2.07c-0.566,0-1.484,0.146-1.484,0.889v0.586h4.248v1.201h-5.537c0-0.596,0-1.191,0-1.797c0-1.572,1.426-2.041,2.773-2.041c0.518,0,1.465-0.088,1.465-0.879c0-0.742-0.674-1.094-1.553-1.094c-0.674,0-1.367,0.342-1.377,0.957H46.153z"/><path fill="#472b29" d="M51.661,57.801h-5.537c-0.138,0-0.25-0.112-0.25-0.25v-1.797c0-1.435,1.13-2.291,3.023-2.291c0.806,0,1.215-0.211,1.215-0.629c0-0.762-0.911-0.844-1.303-0.844c-0.549,0-1.12,0.266-1.127,0.711c-0.002,0.137-0.113,0.246-0.25,0.246h-1.279c-0.066,0-0.131-0.026-0.178-0.074s-0.072-0.111-0.072-0.178c0.011-1.593,1.504-2.319,2.887-2.319c1.499,0,3.102,0.638,3.102,2.428c0,2.08-1.709,2.32-2.994,2.32c-0.29,0-1.234,0.046-1.234,0.639v0.336h3.998c0.138,0,0.25,0.112,0.25,0.25v1.201C51.911,57.689,51.798,57.801,51.661,57.801z M46.374,57.301h5.037v-0.701h-3.998c-0.138,0-0.25-0.112-0.25-0.25v-0.586c0-0.713,0.648-1.139,1.734-1.139c1.748,0,2.494-0.544,2.494-1.82c0-1.789-1.991-1.928-2.602-1.928c-1.1,0-2.213,0.488-2.368,1.57h0.794c0.163-0.624,0.9-0.957,1.594-0.957c1.112,0,1.803,0.515,1.803,1.344c0,0.421-0.223,1.129-1.715,1.129c-0.942,0-2.523,0.233-2.523,1.791V57.301z"/><g><path fill="#cdcbbd" d="M57.512,51.935h-3.691v1.201h1.328c1.455,0,2.754,0.596,2.744,2.197c0,1.553-1.299,2.295-2.676,2.295c-1.504,0-2.793-0.537-2.803-2.139h1.279c0,0.752,0.859,0.947,1.504,0.947c0.625,0,1.416-0.293,1.416-1.104c0.01-0.771-0.762-0.996-1.465-0.996h-2.588c0-1.23,0-2.373,0-3.613h4.951V51.935z"/><path fill="#472b29" d="M55.217,57.879c-1.959,0-3.043-0.848-3.053-2.387c0-0.066,0.025-0.13,0.072-0.178s0.111-0.074,0.178-0.074h1.279c0.138,0,0.25,0.112,0.25,0.25c0,0.647,0.96,0.697,1.254,0.697c0.433,0,1.166-0.18,1.166-0.854c0.002-0.185-0.051-0.328-0.161-0.44c-0.192-0.195-0.576-0.306-1.054-0.306h-2.588c-0.138,0-0.25-0.112-0.25-0.25v-3.613c0-0.138,0.112-0.25,0.25-0.25h4.951c0.138,0,0.25,0.112,0.25,0.25v1.211c0,0.138-0.112,0.25-0.25,0.25h-3.441v0.701h1.078c0.72,0,1.717,0.139,2.375,0.802c0.415,0.417,0.623,0.971,0.619,1.646C58.143,57.092,56.673,57.879,55.217,57.879z M52.679,55.74c0.149,1.346,1.444,1.639,2.538,1.639c1.207,0,2.426-0.632,2.426-2.045c0.003-0.539-0.156-0.973-0.474-1.292c-0.419-0.422-1.137-0.655-2.021-0.655h-1.328c-0.138,0-0.25-0.112-0.25-0.25v-1.201c0-0.138,0.112-0.25,0.25-0.25h3.441v-0.711h-4.451v3.113h2.338c0.438,0,1.038,0.079,1.409,0.455c0.207,0.209,0.31,0.477,0.306,0.794c0,0.927-0.863,1.351-1.666,1.351c-0.954,0-1.589-0.356-1.727-0.947H52.679z"/></g><g><path fill="#472b29" d="M59.689,47.782h-1.728c-0.138,0-0.25-0.112-0.25-0.25s0.112-0.25,0.25-0.25h1.728c0.138,0,0.25,0.112,0.25,0.25S59.827,47.782,59.689,47.782z"/></g><g><path fill="#472b29" d="M61.648,47.782h-0.764c-0.138,0-0.25-0.112-0.25-0.25s0.112-0.25,0.25-0.25h0.764c0.138,0,0.25,0.112,0.25,0.25S61.786,47.782,61.648,47.782z"/></g></g><g><path fill="#fdfcef" d="M40.612,75.779c1.876,0,3.502,0,3.526,0c2.101,0,3.805-1.667,3.805-3.724c0-1.794-1.297-3.292-3.023-3.645c0.02-0.157,0.033-0.316,0.033-0.478c0-2.13-1.764-3.857-3.941-3.857c-1.285,0-2.423,0.605-3.142,1.536c-0.184-2.371-2.348-4.2-4.88-3.897c-1.851,0.222-3.383,1.622-3.723,3.417c-0.109,0.576-0.098,1.134,0.011,1.659c-0.496-0.523-1.203-0.853-1.99-0.853c-1.44,0-2.616,1.097-2.709,2.484c-0.654-0.142-1.365-0.132-2.115,0.143c-1.432,0.526-2.452,1.846-2.512,3.342c-0.085,2.125,1.65,3.873,3.802,3.873c0.163,0,0.738,0,0.87,0h7.901 M34.161,75.779h0.358"/><path fill="#472b29" d="M44.138,76.279h-3.526c-0.276,0-0.5-0.224-0.5-0.5s0.224-0.5,0.5-0.5h3.526c1.822,0,3.305-1.446,3.305-3.224c0-1.518-1.104-2.844-2.624-3.155c-0.257-0.052-0.43-0.294-0.396-0.555c0.018-0.135,0.03-0.273,0.03-0.413c0-1.851-1.544-3.357-3.441-3.357c-1.087,0-2.088,0.489-2.746,1.342c-0.126,0.164-0.343,0.233-0.538,0.174c-0.198-0.059-0.34-0.234-0.355-0.44c-0.079-1.015-0.563-1.935-1.364-2.591c-0.824-0.677-1.877-0.978-2.959-0.848c-1.639,0.196-2.992,1.436-3.291,3.013c-0.094,0.494-0.091,0.986,0.009,1.464c0.046,0.219-0.06,0.441-0.258,0.545c-0.197,0.104-0.439,0.064-0.595-0.099c-0.426-0.449-1.003-0.696-1.627-0.696c-1.163,0-2.134,0.886-2.21,2.018c-0.01,0.145-0.082,0.278-0.198,0.366c-0.117,0.088-0.268,0.12-0.406,0.089c-0.636-0.138-1.234-0.097-1.836,0.124c-1.257,0.461-2.135,1.624-2.185,2.893c-0.035,0.871,0.281,1.699,0.89,2.333c0.633,0.658,1.489,1.02,2.412,1.02h8.771c0.276,0,0.5,0.224,0.5,0.5s-0.224,0.5-0.5,0.5h-8.771c-1.181,0-2.322-0.484-3.133-1.327c-0.8-0.832-1.214-1.921-1.169-3.066c0.066-1.668,1.208-3.192,2.839-3.791c0.608-0.224,1.237-0.306,1.872-0.244c0.345-1.39,1.624-2.414,3.124-2.414c0.49,0,0.972,0.112,1.406,0.32c0.009-0.239,0.036-0.479,0.082-0.72c0.379-2.001,2.087-3.573,4.154-3.82c1.361-0.16,2.676,0.217,3.712,1.068c0.744,0.61,1.273,1.402,1.541,2.291c0.787-0.645,1.777-1.001,2.829-1.001c2.449,0,4.441,1.955,4.441,4.357c0,0.034-0.001,0.067-0.001,0.1c1.757,0.553,2.99,2.181,2.99,4.023C48.443,74.385,46.512,76.279,44.138,76.279z M34.519,76.279h-0.357c-0.276,0-0.5-0.224-0.5-0.5s0.224-0.5,0.5-0.5h0.357c0.276,0,0.5,0.224,0.5,0.5S34.795,76.279,34.519,76.279z"/><path fill="#472b29" d="M42.437,70.499c-0.018,0-0.036-0.002-0.055-0.006c-0.135-0.03-0.22-0.164-0.189-0.299c0.037-0.164,0.094-0.324,0.169-0.477c0.603-1.221,2.268-1.669,3.708-1.003c0.126,0.058,0.181,0.207,0.122,0.332c-0.058,0.125-0.209,0.179-0.331,0.122c-1.2-0.554-2.566-0.207-3.051,0.771c-0.058,0.118-0.102,0.241-0.129,0.365C42.655,70.42,42.551,70.499,42.437,70.499z"/><g><path fill="#472b29" d="M37.299,76.279h-1.103c-0.276,0-0.5-0.224-0.5-0.5s0.224-0.5,0.5-0.5h1.103c0.276,0,0.5,0.224,0.5,0.5S37.576,76.279,37.299,76.279z"/></g></g></svg>